<svg width="16" height="16" viewBox="0 0 16 16" fill="none" xmlns="http://www.w3.org/2000/svg">
<circle cx="8" cy="8" r="7" fill="#D18BFF"/>
<path d="M5.66357 3.19415H6.6626V10.3162L6.57666 11.4442H5.66357V3.19415ZM10.5889 8.49005V8.60284C10.5889 9.02537 10.5387 9.41746 10.4385 9.77911C10.3382 10.1372 10.1914 10.4487 9.99805 10.7137C9.80469 10.9787 9.56836 11.1845 9.28906 11.3314C9.00977 11.4782 8.68929 11.5516 8.32764 11.5516C7.95882 11.5516 7.63477 11.4889 7.35547 11.3636C7.07975 11.2347 6.84701 11.0503 6.65723 10.8104C6.46745 10.5705 6.31527 10.2804 6.20068 9.94025C6.08968 9.60008 6.0127 9.21694 5.96973 8.79083V8.29669C6.0127 7.867 6.08968 7.48208 6.20068 7.14191C6.31527 6.80174 6.46745 6.5117 6.65723 6.27179C6.84701 6.0283 7.07975 5.84389 7.35547 5.71857C7.63118 5.58966 7.95166 5.52521 8.31689 5.52521C8.68213 5.52521 9.00618 5.59682 9.28906 5.74005C9.57194 5.8797 9.80827 6.08022 9.99805 6.34161C10.1914 6.60301 10.3382 6.91632 10.4385 7.28156C10.5387 7.64321 10.5889 8.04604 10.5889 8.49005ZM9.58984 8.60284V8.49005C9.58984 8.20001 9.56299 7.92788 9.50928 7.67365C9.45557 7.41583 9.36963 7.19025 9.25146 6.99689C9.1333 6.79995 8.97754 6.64598 8.78418 6.53497C8.59082 6.42039 8.3527 6.3631 8.06982 6.3631C7.81917 6.3631 7.60075 6.40607 7.41455 6.492C7.23193 6.57794 7.07617 6.69432 6.94727 6.84113C6.81836 6.98435 6.71273 7.14907 6.63037 7.33527C6.5516 7.51788 6.49251 7.70766 6.45312 7.9046V9.19904C6.51042 9.44969 6.60352 9.69139 6.73242 9.92413C6.86491 10.1533 7.04036 10.3413 7.25879 10.4881C7.48079 10.6349 7.75472 10.7083 8.08057 10.7083C8.34912 10.7083 8.57829 10.6546 8.76807 10.5472C8.96143 10.4362 9.11719 10.284 9.23535 10.0906C9.3571 9.89728 9.44661 9.67348 9.50391 9.41925C9.5612 9.16502 9.58984 8.89288 9.58984 8.60284Z" fill="#333333"/>
</svg>
