<svg width="16" height="16" viewBox="0 0 16 16" fill="none" xmlns="http://www.w3.org/2000/svg">
<circle cx="8" cy="8" r="7" fill="#460075"/>
<path d="M4.92236 6.78741V11.4442H3.92334V5.63263H4.86865L4.92236 6.78741ZM4.71826 8.31818L4.25635 8.30206C4.25993 7.9046 4.31185 7.53758 4.41211 7.20099C4.51237 6.86082 4.66097 6.56541 4.85791 6.31476C5.05485 6.06411 5.30013 5.87075 5.59375 5.73468C5.88737 5.59503 6.22754 5.52521 6.61426 5.52521C6.88639 5.52521 7.13704 5.5646 7.36621 5.64337C7.59538 5.71857 7.79411 5.83852 7.9624 6.00323C8.1307 6.16795 8.26139 6.37921 8.35449 6.63702C8.44759 6.89484 8.49414 7.20636 8.49414 7.57159V11.4442H7.50049V7.61993C7.50049 7.31557 7.44857 7.07208 7.34473 6.88947C7.24447 6.70685 7.10124 6.57436 6.91504 6.492C6.72884 6.40607 6.51042 6.3631 6.25977 6.3631C5.96615 6.3631 5.72087 6.41502 5.52393 6.51886C5.32699 6.6227 5.16943 6.76593 5.05127 6.94855C4.93311 7.13116 4.84717 7.34064 4.79346 7.57697C4.74333 7.80971 4.71826 8.05678 4.71826 8.31818ZM8.4834 7.77032L7.81738 7.97443C7.82096 7.65574 7.87288 7.34959 7.97314 7.05597C8.07699 6.76235 8.22559 6.50096 8.41895 6.27179C8.61589 6.04262 8.85758 5.8618 9.14404 5.72931C9.4305 5.59324 9.75814 5.52521 10.127 5.52521C10.4385 5.52521 10.7142 5.56639 10.9541 5.64874C11.1976 5.7311 11.4017 5.85822 11.5664 6.03009C11.7347 6.19838 11.8618 6.41502 11.9478 6.67999C12.0337 6.94497 12.0767 7.26007 12.0767 7.62531V11.4442H11.0776V7.61456C11.0776 7.28872 11.0257 7.03628 10.9219 6.85724C10.8216 6.67462 10.6784 6.54751 10.4922 6.47589C10.3096 6.4007 10.0911 6.3631 9.83691 6.3631C9.61849 6.3631 9.42513 6.4007 9.25684 6.47589C9.08854 6.55109 8.9471 6.65493 8.83252 6.78741C8.71794 6.91632 8.63021 7.06492 8.56934 7.23322C8.51204 7.40151 8.4834 7.58055 8.4834 7.77032Z" fill="#AEB9C0"/>
</svg>
